<svg width="39" height="56" viewBox="0 0 39 56" fill="none" xmlns="http://www.w3.org/2000/svg">
<path d="M22.0272 12.2594C22.6872 12.2594 23.2238 11.7133 23.2238 11.0416V7.07167C23.2238 6.4 22.6872 5.85392 22.0272 5.85392C21.3672 5.85392 20.8306 6.4 20.8306 7.07167V11.0416C20.8253 11.7133 21.3619 12.2594 22.0272 12.2594ZM16.5271 12.2594C17.1871 12.2594 17.7237 11.7133 17.7237 11.0416V7.07167C17.7237 6.4 17.1871 5.85392 16.5271 5.85392C15.8671 5.85392 15.3305 6.4 15.3305 7.07167V11.0416C15.3305 11.7133 15.8671 12.2594 16.5271 12.2594ZM16.5271 3.44573C17.1871 3.44573 17.7237 2.89966 17.7237 2.22799V1.21775C17.7237 0.546075 17.1871 0 16.5271 0C15.8671 0 15.3305 0.546075 15.3305 1.21775V2.22253C15.3305 2.8942 15.8671 3.44573 16.5271 3.44573ZM22.0272 3.44573C22.6872 3.44573 23.2238 2.89966 23.2238 2.22799V1.21775C23.2238 0.546075 22.6872 0 22.0272 0C21.3619 0 20.8253 0.546075 20.8253 1.21775V2.22253C20.8253 2.8942 21.3619 3.44573 22.0272 3.44573ZM35.2382 35.1727H34.2509C33.5909 35.1727 33.0543 35.7188 33.0543 36.3904C33.0543 37.0621 33.5909 37.6082 34.2509 37.6082H35.2382C35.8982 37.6082 36.4348 37.0621 36.4348 36.3904C36.4348 35.7188 35.8982 35.1727 35.2382 35.1727ZM5.10839 35.1727H4.12105C3.46104 35.1727 2.92444 35.7188 2.92444 36.3904C2.92444 37.0621 3.46104 37.6082 4.12105 37.6082H5.10839C5.7684 37.6082 6.30499 37.0621 6.30499 36.3904C6.31036 35.7188 5.77376 35.1727 5.10839 35.1727ZM24.0609 53.5645H14.8422C14.1822 53.5645 13.6456 54.1106 13.6456 54.7822C13.6456 55.4539 14.1822 56 14.8422 56H24.0556C24.7156 56 25.2522 55.4539 25.2522 54.7822C25.2575 54.116 24.7209 53.5645 24.0609 53.5645ZM32.8504 8.27304C33.5104 8.27304 34.047 7.72696 34.047 7.05529V6.05051C34.047 5.37884 33.5104 4.83276 32.8504 4.83276C32.1903 4.83276 31.6537 5.37884 31.6537 6.05051V7.05529C31.6537 7.72696 32.1903 8.27304 32.8504 8.27304ZM11.0002 17.0703H27.6185C28.2732 17.0703 28.8098 16.5297 28.8152 15.8635L28.8044 15.7652V2.65939C28.8044 1.98771 28.2678 1.44164 27.6078 1.44164C26.9478 1.44164 26.4112 1.98771 26.4112 2.65939V14.6348H12.2075V2.65939C12.2075 1.98771 11.6709 1.44164 11.0109 1.44164C10.3509 1.44164 9.81432 1.98771 9.81432 2.65939L9.80359 15.8471C9.80359 16.1747 9.92701 16.4805 10.1577 16.7154C10.3777 16.9447 10.6782 17.0703 11.0002 17.0703ZM37.347 27.7679H25.3112C24.6512 27.7679 24.1146 28.314 24.1146 28.9857C24.1146 29.013 24.1199 29.0348 24.1199 29.0621L24.1307 29.1604L24.136 43.3038C24.136 43.9645 24.6673 44.5106 25.3166 44.5215H29.3839C30.044 44.5215 30.5806 43.9754 30.5806 43.3038C30.5806 42.6321 30.044 42.086 29.3839 42.086H26.5346V37.6136H30.1566C30.8167 37.6136 31.3533 37.0676 31.3533 36.3959C31.3533 35.7242 30.8167 35.1782 30.1566 35.1782H26.5346V30.2143H37.347C38.007 30.2143 38.5436 29.6683 38.5436 28.9966C38.5436 28.314 38.007 27.7679 37.347 27.7679ZM5.96157 8.27304C6.62158 8.27304 7.15818 7.72696 7.15818 7.05529V6.05051C7.15818 5.37884 6.62158 4.83276 5.96157 4.83276C5.30156 4.83276 4.76496 5.37884 4.76496 6.05051V7.05529C4.76496 7.72696 5.30156 8.27304 5.96157 8.27304ZM38.8012 15.9782V15.929L38.8119 15.8526C38.8066 15.1918 38.27 14.6621 37.6153 14.6621L34.0684 14.6676L34.0523 11.899C34.0523 11.2273 33.5157 10.6812 32.8557 10.6812C32.1957 10.6812 31.6591 11.2273 31.6591 11.899V15.8689C31.6591 16.4587 32.0723 16.9611 32.6464 17.0648C32.7323 17.0812 32.8128 17.0921 32.8986 17.0921H36.4187V24.273C36.4187 24.9447 36.9553 25.4908 37.6153 25.4908C38.2753 25.4908 38.8119 24.9447 38.8119 24.273V16.0655C38.8012 16.0273 38.8012 15.9945 38.8012 15.9782ZM29.4269 47.9563H9.47627C8.81626 47.9563 8.27966 48.5024 8.27966 49.1741C8.27966 49.8457 8.81626 50.3918 9.47627 50.3918H29.4269C30.0869 50.3918 30.6235 49.8457 30.6235 49.1741C30.6235 48.5024 30.0869 47.9563 29.4269 47.9563ZM9.22944 42.0805C8.56942 42.0805 8.03283 42.6266 8.03283 43.2983C8.03283 43.97 8.56942 44.516 9.22944 44.516H13.3022C13.9515 44.4997 14.4773 43.9536 14.4773 43.2983L14.4934 29.0567C14.4988 29.0348 14.5042 29.0075 14.5042 28.9857C14.5042 28.314 13.9676 27.7679 13.3076 27.7679H1.26636C0.606352 27.7679 0.0697574 28.314 0.0697574 28.9857C0.0697574 29.6573 0.606352 30.2034 1.26636 30.2034H12.0788V35.1672H9.20261C8.54259 35.1672 8.006 35.7133 8.006 36.385C8.006 37.0567 8.54259 37.6027 9.20261 37.6027H12.0788V42.0805H9.22944V42.0805ZM0.00536595 16.0601V24.273C0.00536595 24.9447 0.541961 25.4908 1.20197 25.4908C1.86199 25.4908 2.39858 24.9447 2.39858 24.273V17.0921H5.91864C5.99913 17.0921 6.07962 17.0812 6.16011 17.0648C6.73963 16.9611 7.15281 16.4532 7.15281 15.8635V11.8935C7.15281 11.2218 6.61622 10.6758 5.95621 10.6758C5.29619 10.6758 4.7596 11.2218 4.7596 11.8935L4.73813 14.6512H1.19661C0.541961 14.6512 0.00536595 15.1863 0 15.8416L0.0107319 15.9235L0.00536595 15.9836C0.0107319 16.0164 0.0107319 16.0437 0.00536595 16.0601Z" fill="url(#paint0_linear_336_827)"/>
<defs>
<linearGradient id="paint0_linear_336_827" x1="19.406" y1="0" x2="19.406" y2="56" gradientUnits="userSpaceOnUse">
<stop stop-color="#ED12F1"/>
<stop offset="1" stop-color="#6D39D8"/>
</linearGradient>
</defs>
</svg>